<svg viewBox="0 0 38 38" xmlns="http://www.w3.org/2000/svg" fill-rule="evenodd" clip-rule="evenodd" stroke-linejoin="round" stroke-miterlimit="2"><path d="M27.675 14.814c.008.187.012.375.012.564 0 5.762-4.386 12.407-12.408 12.408h.001c-2.463 0-4.755-.722-6.685-1.96.34.042.688.06 1.04.06a8.747 8.747 0 005.417-1.866 4.363 4.363 0 01-4.074-3.029 4.33 4.33 0 001.97-.074 4.362 4.362 0 01-3.5-4.275v-.056c.589.327 1.26.523 1.976.546a4.357 4.357 0 01-1.94-3.63c0-.8.215-1.548.59-2.193a12.383 12.383 0 008.99 4.557 4.361 4.361 0 017.431-3.977 8.769 8.769 0 002.77-1.059 4.372 4.372 0 01-1.92 2.412 8.706 8.706 0 002.506-.686 8.88 8.88 0 01-2.176 2.258M19 0C8.51 0 0 8.509 0 19c0 10.492 8.509 19 19 19 10.492 0 19-8.508 19-19C38 8.51 29.492 0 19 0" fill="#fff"/></svg>