<svg viewBox="0 0 38 38" xmlns="http://www.w3.org/2000/svg" fill-rule="evenodd" clip-rule="evenodd" stroke-linejoin="round" stroke-miterlimit="2"><path d="M22.637 19a3.637 3.637 0 11-7.275-.001 3.637 3.637 0 017.275 0" fill="#f9f9f9"/><path d="M24.823 14.485a1.31 1.31 0 11.002-2.619 1.31 1.31 0 01-.002 2.62M19 24.601a5.602 5.602 0 11-.001-11.205 5.602 5.602 0 010 11.205m8.506-12.036a3.361 3.361 0 00-.817-1.255 3.361 3.361 0 00-1.254-.816c-.384-.15-.962-.327-2.025-.375-1.15-.052-1.496-.064-4.41-.064-2.912 0-3.257.01-4.408.063-1.063.049-1.641.227-2.025.376a3.361 3.361 0 00-1.254.816 3.37 3.37 0 00-.817 1.255c-.15.384-.327.962-.376 2.026-.052 1.15-.064 1.495-.064 4.408 0 2.913.012 3.258.064 4.41.049 1.062.227 1.64.376 2.025.175.473.454.902.815 1.254.353.362.781.641 1.255.816.385.15.963.328 2.026.376 1.15.052 1.496.064 4.409.064s3.258-.012 4.408-.064c1.064-.048 1.642-.226 2.026-.376a3.61 3.61 0 002.07-2.07c.15-.385.328-.963.377-2.026.052-1.15.063-1.496.063-4.41 0-2.912-.01-3.257-.063-4.407-.05-1.064-.227-1.642-.376-2.026" fill="#f9f9f9"/><path d="M29.844 23.498c-.052 1.161-.237 1.955-.507 2.649a5.576 5.576 0 01-3.19 3.19c-.694.27-1.488.454-2.649.507-1.163.053-1.535.066-4.498.066s-3.335-.013-4.498-.066c-1.161-.053-1.955-.237-2.648-.507a5.34 5.34 0 01-1.933-1.258 5.345 5.345 0 01-1.258-1.932c-.27-.694-.454-1.488-.507-2.65-.054-1.163-.066-1.535-.066-4.497 0-2.963.012-3.335.066-4.498.052-1.162.237-1.955.507-2.649A5.345 5.345 0 019.92 9.921a5.34 5.34 0 011.933-1.258c.693-.27 1.487-.454 2.648-.507 1.163-.054 1.535-.066 4.498-.066 2.962 0 3.335.012 4.498.066 1.161.053 1.955.237 2.649.507a5.345 5.345 0 011.932 1.258 5.345 5.345 0 011.258 1.932c.27.694.455 1.487.507 2.649.053 1.163.066 1.535.066 4.498 0 2.962-.013 3.334-.066 4.498M19 0C8.508 0 0 8.508 0 19s8.508 19 19 19 19-8.508 19-19S29.492 0 19 0" fill="#f9f9f9"/></svg>