<svg viewBox="0 0 167 76" xmlns="http://www.w3.org/2000/svg" fill-rule="evenodd" clip-rule="evenodd" stroke-linejoin="round" stroke-miterlimit="2"><path d="M0 40h9v-3H0v3zm0 36h9v-3H0v3zM0 3h9V0H0v3zm0 8v18h9v-2.674H2.93v-6.608H9v-2.701H2.93V13.7H9V11H0zm23.019 10.595l-7.036-6.66V29H13V11h2.983l7.036 6.713V11H26v18h-2.981v-7.405zm13.675-6.149c0-1.48-.85-2.414-2.237-2.414-1.413 0-2.338.961-2.338 2.18 0 1.247.589 1.923 2.338 2.414l.849.234c3.01.831 5.245 2.05 5.245 5.711 0 3.296-2.571 5.659-6.041 5.659-3.448 0-5.992-2.336-5.992-6.075h2.803c0 1.896 1.363 3.348 3.189 3.348 1.953 0 3.187-1.271 3.187-2.932 0-1.635-1.027-2.414-3.163-3.012l-.796-.206c-2.982-.831-4.397-2.545-4.397-5.141 0-2.96 2.187-4.907 5.116-4.907 3.189 0 5.015 1.766 5.015 5.141h-2.778zm6.596 13.42V10.694h8.999v2.726h-6.068v3.351h6.068v2.724h-6.068v6.672h6.068v2.699H43.29zm12.829-18.171h2.931l5.785 14.356 5.81-14.356h2.931v18.172h-2.931V17.94l-4.32 10.927h-2.98L59.05 17.94v10.927h-2.931V10.695zm24.329 10.384v4.959h3.547c1.568 0 2.647-.883 2.647-2.466 0-1.559-1.079-2.493-2.623-2.493h-3.571zm0-7.658v4.856h1.748c1.514 0 2.313-.937 2.313-2.442 0-1.507-.799-2.414-2.313-2.414h-1.748zm-2.934-2.726h4.862c3.136 0 5.115 2.026 5.115 4.907 0 1.61-.564 2.648-1.492 3.272 2.238.543 3.73 2.126 3.73 4.698 0 3.218-2.315 5.293-5.529 5.293h-6.686v-18.17zm15.192 0h2.932v15.473h6.067v2.699h-8.999V10.695zm11.827 18.171V10.694h8.996v2.726h-6.065v3.351h6.065v2.724h-6.065v6.672h6.065v2.699h-8.996zM33.547 47.828v12.149c0 3.739-2.466 6.411-6.247 6.411-3.728 0-6.195-2.672-6.195-6.411V47.828h2.905v12.149c0 2.025 1.259 3.582 3.29 3.582 2.084 0 3.316-1.557 3.316-3.582V47.828h2.931zm10.519 4.751c0-1.48-.847-2.414-2.235-2.414-1.417 0-2.34.961-2.34 2.18 0 1.247.589 1.923 2.34 2.414l.847.234c3.01.831 5.245 2.05 5.245 5.711 0 3.296-2.571 5.659-6.041 5.659-3.445 0-5.989-2.336-5.989-6.075h2.8c0 1.896 1.363 3.349 3.189 3.349 1.953 0 3.187-1.271 3.187-2.933 0-1.635-1.027-2.414-3.162-3.012l-.797-.206c-2.98-.831-4.397-2.545-4.397-5.141 0-2.959 2.187-4.906 5.118-4.906 3.187 0 5.013 1.765 5.013 5.14h-2.778zM50.238 66v-2.702h3.547V50.554h-3.547v-2.726h10.028v2.726h-3.549v12.744h3.549V66H50.238zm22.238-10.125l4.242 10.126h-3.29L70.65 58.99l-4.088 7.011h-2.929V47.829h2.929v12.798l7.329-12.798h3.289l-4.704 8.046zm10.439.754V66h-2.932V47.828h9.001v2.726h-6.069v3.348h6.069v2.727h-6.069zm28.102 1.583v4.959h3.547c1.568 0 2.649-.883 2.649-2.466 0-1.559-1.081-2.493-2.624-2.493h-3.572zm0-7.658v4.853h1.748c1.517 0 2.313-.934 2.313-2.438 0-1.505-.796-2.415-2.313-2.415h-1.748zm-2.932-2.726h4.86c3.136 0 5.116 2.026 5.116 4.907 0 1.608-.565 2.648-1.49 3.272 2.235.543 3.727 2.127 3.727 4.698 0 3.218-2.315 5.295-5.527 5.295h-6.686V47.828zm19.619 2.83l2.673 4.932h1.052c1.543 0 2.622-.935 2.622-2.466 0-1.532-1.079-2.466-2.622-2.466h-3.725zm9.41 2.466c0 3.09-2.213 5.165-5.223 5.295l4.142 7.582h-3.292l-6.35-12.019v12.019h-2.931V47.829h8.149c3.19 0 5.505 2.077 5.505 5.295zM139.35 66v-2.702h3.547V50.554h-3.547v-2.726h10.026v2.726h-3.547v12.744h3.547V66H139.35zm22.24-10.125l4.242 10.126h-3.292l-2.776-7.012-4.088 7.012h-2.931V47.83h2.931v12.798l7.329-12.798h3.289l-4.704 8.046zM0 47.829h2.931l5.786 14.357 5.809-14.357h2.931v18.172h-2.931V55.074l-4.319 10.927H7.226L2.931 55.074v10.927H0V47.829zm95.707 9.147l4.993 4.056-3.177-9.327-1.816 5.271zm-.947 2.689l-2.126 6.252H89.51l6.53-18.089h3.046l6.323 18.089h-3.07l-7.579-6.252z" fill="#fefefe"/></svg>