<svg viewBox="0 0 232 439" xmlns="http://www.w3.org/2000/svg" fill-rule="evenodd" clip-rule="evenodd" stroke-linejoin="round" stroke-miterlimit="2"><path fill="#fff" d="M3.7 0h27.8v8.3H3.7z"/><path d="M3.7 88.8V33.2h27.8v8.3H12.7v10.3h18.8v8.3H12.7v20.4h18.8v8.3H3.7zm70.1-22.9L52.4 45.3v43.5h-9.1V33.2h9.1l21.4 20.7V33.2h9.1v55.6h-9.1V65.9zm43.3-18.2c0-4.5-2.6-7.4-6.9-7.4-4.4 0-7.2 2.9-7.2 6.7 0 3.8 1.8 5.9 7.2 7.4l2.6.7c9.3 2.5 16.2 6.3 16.2 17.5 0 10.1-7.9 17.3-18.7 17.3-10.7 0-18.5-7.2-18.5-18.6h8.7c0 5.8 4.2 10.3 9.9 10.3 6 0 9.9-3.9 9.9-9 0-5-3.2-7.4-9.8-9.2l-2.5-.6C98.8 60.2 94.4 55 94.4 47c0-9.1 6.8-15 15.8-15 9.9 0 15.5 5.4 15.5 15.7h-8.6zm20.4 41.1V33.2h27.8v8.3h-18.8v10.3h18.8v8.3h-18.8v20.4h18.8v8.3h-27.8zm39.7-55.6h9.1l17.9 44 18-44h9.1v55.6h-9.1V55.4l-13.4 33.5h-9.2l-13.3-33.5v33.5h-9.1V33.2zm-173.5 68h15c9.7 0 15.8 6.2 15.8 15 0 4.9-1.7 8.1-4.6 10 6.9 1.7 11.5 6.5 11.5 14.4 0 9.9-7.2 16.2-17.1 16.2H3.7v-55.6zm9 8.4v14.9h5.4c4.7 0 7.2-2.9 7.2-7.5s-2.5-7.4-7.2-7.4h-5.4zm0 23.4v15.2h11c4.8 0 8.2-2.7 8.2-7.6 0-4.8-3.3-7.6-8.1-7.6H12.7zm37.9-31.8h9.1v47.4h18.8v8.3H50.6v-55.7zm36.6 55.7v-55.6H115v8.3H96.3v10.3H115v8.3H96.3v20.4H115v8.3H87.2zM3.7 214.2h9.1l17.9 44 18-44h9.1v55.6h-9.1v-33.5l-13.4 33.5H26l-13.3-33.5v33.5h-9v-55.6zm105.4 0v37.2c0 11.4-7.6 19.6-19.3 19.6-11.5 0-19.2-8.2-19.2-19.6v-37.2h9v37.2c0 6.2 3.9 11 10.2 11 6.4 0 10.3-4.8 10.3-11v-37.2h9zm-83.8 82.4c0-4.5-2.6-7.4-6.9-7.4-4.4 0-7.2 2.9-7.2 6.7 0 3.8 1.8 5.9 7.2 7.4l2.6.7c9.3 2.5 16.2 6.3 16.2 17.5 0 10.1-7.9 17.3-18.7 17.3-10.6 0-18.5-7.1-18.5-18.6h8.7c0 5.8 4.2 10.3 9.9 10.3 6 0 9.9-3.9 9.9-9 0-5-3.2-7.4-9.8-9.2l-2.5-.6C7 309.2 2.6 303.9 2.6 296c0-9.1 6.8-15 15.8-15 9.9 0 15.5 5.4 15.5 15.7h-8.6v-.1zm19.1 41.1v-8.3h11v-39h-11v-8.3h31v8.3h-11v39h11v8.3h-31zm68.7-31l13.1 31H116l-8.6-21.5-12.6 21.5h-9.1v-55.6h9.1v39.2l22.7-39.2h10.2l-14.6 24.6zm32.3 2.3v28.7h-9.1v-55.6h27.8v8.3h-18.8v10.3h18.8v8.3h-18.7zm35.4 9.5l-6.6 19.2h-9.7l20.3-55.6h9.5l19.6 55.6h-9.5l-23.6-19.2zm3-8.3l15.5 12.5-9.9-28.7-5.6 16.2zM3.7 350.1h15c9.7 0 15.8 6.2 15.8 15 0 4.9-1.7 8.1-4.6 10 6.9 1.7 11.5 6.5 11.5 14.4 0 9.9-7.2 16.2-17.1 16.2H3.7v-55.6zm9 8.4v14.9h5.4c4.7 0 7.2-2.9 7.2-7.5s-2.5-7.4-7.2-7.4h-5.4zm0 23.4v15.2h11c4.8 0 8.2-2.7 8.2-7.6 0-4.8-3.3-7.6-8.1-7.6H12.7zm80.7-15.6c0 9.5-6.8 15.8-16.1 16.2l12.8 23.2H79.9L60.3 369v36.8h-9.1v-55.6h25.2c9.9-.1 17 6.3 17 16.1zm-29.1-7.5l8.3 15.1h3.3c4.8 0 8.1-2.9 8.1-7.6 0-4.7-3.3-7.6-8.1-7.6H64.3v.1zm36.1 47v-8.3h11v-39h-11v-8.3h31v8.3h-11v39h11v8.3h-31zm68.8-31l13.1 31h-10.2l-8.6-21.5-12.6 21.5h-9.1v-55.6h9.1v39.2l22.7-39.2h10.2l-14.6 24.6z" fill="#fff" fill-rule="nonzero"/><path fill="#fff" d="M3.7 0h27.8v8.3H3.7zm0 430.7h27.8v8.3H3.7z"/><path fill="#fff" d="M3.7 430.7h27.8v8.3H3.7zm0-249.4h27.8v8.3H3.7z"/></svg>