<?xml version="1.0" encoding="UTF-8" standalone="no"?>
<!DOCTYPE svg PUBLIC "-//W3C//DTD SVG 1.1//EN" "http://www.w3.org/Graphics/SVG/1.1/DTD/svg11.dtd">
<svg width="100%" height="100%" viewBox="0 0 15 15" version="1.1" xmlns="http://www.w3.org/2000/svg" xmlns:xlink="http://www.w3.org/1999/xlink" xml:space="preserve" xmlns:serif="http://www.serif.com/" style="fill-rule:evenodd;clip-rule:evenodd;stroke-linejoin:round;stroke-miterlimit:2;">
    <g transform="matrix(1,0,0,1,0.5,0.5)">
        <g id="Startseite">
            <g id="Home-XL-Full-V2-Copy-2">
                <g id="Group-3">
                    <path id="Fill-1" d="M5.688,9.625C3.516,9.625 1.75,7.859 1.75,5.688C1.75,3.516 3.516,1.75 5.688,1.75C7.859,1.75 9.625,3.516 9.625,5.688C9.625,7.859 7.859,9.625 5.688,9.625M10.274,9.037C10.963,8.096 11.375,6.94 11.375,5.688C11.375,2.552 8.823,0 5.687,0C2.552,0 0,2.552 0,5.688C0,8.824 2.552,11.375 5.688,11.375C6.94,11.375 8.096,10.963 9.037,10.274L12.763,14L14,12.763L10.274,9.037" style="fill:white;"/>
                </g>
            </g>
        </g>
    </g>
</svg>
