<?xml version="1.0" encoding="UTF-8" standalone="no"?>
<!DOCTYPE svg PUBLIC "-//W3C//DTD SVG 1.1//EN" "http://www.w3.org/Graphics/SVG/1.1/DTD/svg11.dtd">
<svg width="100%" height="100%" viewBox="0 0 38 38" version="1.1" xmlns="http://www.w3.org/2000/svg" xmlns:xlink="http://www.w3.org/1999/xlink" xml:space="preserve" xmlns:serif="http://www.serif.com/" style="fill-rule:evenodd;clip-rule:evenodd;stroke-linejoin:round;stroke-miterlimit:2;">
    <g transform="matrix(1.08571,0,0,1.08571,0,0)">
        <g id="Page-1">
            <path id="Fill-1" d="M17.5,0C7.835,0 0,7.868 0,17.573C0,26.278 6.309,33.487 14.581,34.883L14.581,21.24L10.36,21.24L10.36,16.33L14.581,16.33L14.581,12.71C14.581,8.509 17.136,6.22 20.868,6.22C22.656,6.22 24.192,6.354 24.637,6.413L24.637,10.804L22.049,10.805C20.02,10.805 19.629,11.773 19.629,13.194L19.629,16.328L24.471,16.328L23.839,21.237L19.629,21.237L19.629,35C28.287,33.942 35,26.549 35,17.568C35,7.868 27.165,0 17.5,0" style="fill:white;"/>
        </g>
    </g>
</svg>
