<?xml version="1.0" encoding="UTF-8" standalone="no"?>
<!DOCTYPE svg PUBLIC "-//W3C//DTD SVG 1.1//EN" "http://www.w3.org/Graphics/SVG/1.1/DTD/svg11.dtd">
<svg width="100%" height="100%" viewBox="0 0 38 38" version="1.1" xmlns="http://www.w3.org/2000/svg" xmlns:xlink="http://www.w3.org/1999/xlink" xml:space="preserve" xmlns:serif="http://www.serif.com/" style="fill-rule:evenodd;clip-rule:evenodd;stroke-linejoin:round;stroke-miterlimit:2;">
    <g transform="matrix(1.01949,0,0,1.01949,4.25625e-07,4.25625e-07)">
        <g id="Page-1">
            <path id="Fill-1" d="M27.146,14.531C27.154,14.714 27.158,14.899 27.158,15.084C27.158,20.736 22.856,27.254 14.987,27.255L14.988,27.255L14.987,27.255C12.572,27.255 10.324,26.547 8.431,25.333C8.765,25.373 9.106,25.392 9.451,25.392C11.455,25.392 13.3,24.709 14.764,23.561C12.891,23.527 11.312,22.29 10.768,20.59C11.028,20.64 11.296,20.668 11.572,20.668C11.962,20.668 12.34,20.615 12.7,20.517C10.742,20.125 9.268,18.395 9.268,16.324C9.268,16.304 9.268,16.287 9.268,16.269C9.845,16.59 10.504,16.782 11.206,16.804C10.057,16.038 9.302,14.727 9.302,13.243C9.302,12.46 9.514,11.725 9.881,11.093C11.991,13.682 15.144,15.384 18.699,15.563C18.625,15.249 18.588,14.923 18.588,14.587C18.588,12.226 20.503,10.31 22.866,10.31C24.096,10.31 25.208,10.83 25.988,11.662C26.963,11.469 27.878,11.113 28.705,10.623C28.385,11.622 27.707,12.46 26.823,12.989C27.689,12.886 28.513,12.656 29.28,12.316C28.707,13.174 27.981,13.927 27.146,14.531M18.637,-0C8.346,-0 -0,8.346 -0,18.637C-0,28.928 8.346,37.274 18.637,37.274C28.928,37.274 37.274,28.928 37.274,18.637C37.274,8.346 28.928,-0 18.637,-0" style="fill:white;"/>
        </g>
    </g>
</svg>
