<?xml version="1.0" encoding="UTF-8" standalone="no"?>
<!DOCTYPE svg PUBLIC "-//W3C//DTD SVG 1.1//EN" "http://www.w3.org/Graphics/SVG/1.1/DTD/svg11.dtd">
<svg width="100%" height="100%" viewBox="0 0 38 38" version="1.1" xmlns="http://www.w3.org/2000/svg" xmlns:xlink="http://www.w3.org/1999/xlink" xml:space="preserve" xmlns:serif="http://www.serif.com/" style="fill-rule:evenodd;clip-rule:evenodd;stroke-linejoin:round;stroke-miterlimit:2;">
    <g id="Page-1" transform="matrix(1,0,0,1,0,1)">
        <g id="Fill-1" transform="matrix(1.04533,0,0,1.04533,-9.65625e-07,-1.00004)">
            <path d="M21.655,18.176C21.655,20.097 20.097,21.655 18.176,21.655C16.255,21.655 14.697,20.097 14.697,18.176C14.697,16.255 16.255,14.697 18.176,14.697C20.097,14.697 21.655,16.255 21.655,18.176" style="fill:rgb(249,249,249);"/>
        </g>
        <g id="Fill-3" transform="matrix(1.04533,0,0,1.04533,-9.65625e-07,-1.00004)">
            <path d="M23.747,13.857C23.056,13.857 22.495,13.296 22.495,12.605C22.495,11.913 23.056,11.352 23.747,11.352C24.439,11.352 25,11.913 25,12.605C25,13.296 24.439,13.857 23.747,13.857M18.176,23.535C15.216,23.535 12.816,21.136 12.816,18.176C12.816,15.216 15.216,12.817 18.176,12.817C21.136,12.817 23.535,15.216 23.535,18.176C23.535,21.136 21.136,23.535 18.176,23.535M26.312,12.021C26.145,11.567 25.878,11.157 25.531,10.821C25.195,10.474 24.785,10.207 24.331,10.04C23.964,9.897 23.411,9.727 22.394,9.681C21.293,9.631 20.963,9.62 18.176,9.62C15.389,9.62 15.059,9.63 13.958,9.68C12.941,9.727 12.388,9.897 12.021,10.04C11.567,10.207 11.157,10.474 10.821,10.821C10.474,11.157 10.207,11.567 10.04,12.021C9.897,12.388 9.727,12.941 9.68,13.959C9.63,15.059 9.619,15.389 9.619,18.176C9.619,20.963 9.63,21.293 9.68,22.394C9.727,23.411 9.897,23.964 10.04,24.332C10.207,24.785 10.474,25.195 10.82,25.532C11.157,25.878 11.567,26.145 12.02,26.312C12.388,26.456 12.941,26.626 13.958,26.672C15.059,26.722 15.389,26.733 18.176,26.733C20.963,26.733 21.293,26.722 22.393,26.672C23.411,26.626 23.964,26.456 24.331,26.312C25.242,25.961 25.961,25.242 26.312,24.332C26.455,23.964 26.625,23.411 26.672,22.394C26.722,21.293 26.732,20.963 26.732,18.176C26.732,15.389 26.722,15.059 26.672,13.959C26.625,12.941 26.455,12.388 26.312,12.021" style="fill:rgb(249,249,249);"/>
        </g>
        <g id="Fill-5" transform="matrix(1.04533,0,0,1.04533,-9.65625e-07,-1.00004)">
            <path d="M28.55,22.479C28.5,23.59 28.323,24.349 28.065,25.013C27.523,26.415 26.415,27.523 25.013,28.065C24.349,28.323 23.59,28.499 22.479,28.55C21.366,28.601 21.011,28.613 18.176,28.613C15.342,28.613 14.986,28.601 13.873,28.55C12.762,28.499 12.003,28.323 11.34,28.065C10.643,27.803 10.012,27.392 9.491,26.861C8.96,26.34 8.549,25.709 8.287,25.013C8.029,24.349 7.853,23.59 7.802,22.479C7.751,21.366 7.739,21.01 7.739,18.176C7.739,15.342 7.751,14.986 7.802,13.873C7.852,12.762 8.029,12.003 8.287,11.339C8.549,10.643 8.96,10.012 9.491,9.491C10.012,8.96 10.643,8.549 11.34,8.287C12.003,8.029 12.762,7.853 13.873,7.802C14.986,7.751 15.342,7.739 18.176,7.739C21.01,7.739 21.366,7.751 22.479,7.802C23.59,7.853 24.349,8.029 25.013,8.287C25.709,8.549 26.34,8.96 26.861,9.491C27.392,10.012 27.803,10.643 28.065,11.339C28.323,12.003 28.5,12.762 28.55,13.873C28.601,14.986 28.613,15.342 28.613,18.176C28.613,21.01 28.601,21.366 28.55,22.479M18.176,0C8.139,0 0,8.139 0,18.176C0,28.213 8.139,36.352 18.176,36.352C28.213,36.352 36.352,28.213 36.352,18.176C36.352,8.139 28.213,0 18.176,0" style="fill:rgb(249,249,249);"/>
        </g>
    </g>
</svg>
