<?xml version="1.0" encoding="UTF-8" standalone="no"?>
<!DOCTYPE svg PUBLIC "-//W3C//DTD SVG 1.1//EN" "http://www.w3.org/Graphics/SVG/1.1/DTD/svg11.dtd">
<svg width="100%" height="100%" viewBox="0 0 167 76" version="1.1" xmlns="http://www.w3.org/2000/svg" xmlns:xlink="http://www.w3.org/1999/xlink" xml:space="preserve" xmlns:serif="http://www.serif.com/" style="fill-rule:evenodd;clip-rule:evenodd;stroke-linejoin:round;stroke-miterlimit:2;">
    <g id="Page-1">
        <g id="Menü-Copy-23">
            <g id="Group-42">
                <path id="Fill-1" d="M0,40L9,40L9,37L0,37L0,40Z" style="fill:rgb(254,254,254);"/>
                <path id="Fill-2" d="M0,76L9,76L9,73L0,73L0,76Z" style="fill:rgb(254,254,254);"/>
                <path id="Fill-3" d="M0,3L9,3L9,0L0,0L0,3Z" style="fill:rgb(254,254,254);"/>
                <path id="Fill-4" d="M0,11L0,29L9,29L9,26.326L2.93,26.326L2.93,19.718L9,19.718L9,17.017L2.93,17.017L2.93,13.7L9,13.7L9,11L0,11Z" style="fill:rgb(254,254,254);"/>
                <path id="Fill-5" d="M23.019,21.595L15.983,14.935L15.983,29L13,29L13,11L15.983,11L23.019,17.713L23.019,11L26,11L26,29L23.019,29L23.019,21.595Z" style="fill:rgb(254,254,254);"/>
                <g id="Group-41" transform="matrix(1,0,0,1,0,10)">
                    <path id="Fill-6" d="M36.694,5.446C36.694,3.966 35.844,3.032 34.457,3.032C33.044,3.032 32.119,3.993 32.119,5.212C32.119,6.459 32.708,7.135 34.457,7.626L35.306,7.86C38.316,8.691 40.551,9.91 40.551,13.571C40.551,16.867 37.98,19.23 34.51,19.23C31.062,19.23 28.518,16.894 28.518,13.155L31.321,13.155C31.321,15.051 32.684,16.503 34.51,16.503C36.463,16.503 37.697,15.232 37.697,13.571C37.697,11.936 36.67,11.157 34.534,10.559L33.738,10.353C30.756,9.522 29.341,7.808 29.341,5.212C29.341,2.252 31.528,0.305 34.457,0.305C37.646,0.305 39.472,2.071 39.472,5.446L36.694,5.446Z" style="fill:rgb(254,254,254);"/>
                    <path id="Fill-8" d="M43.29,18.866L43.29,0.694L52.289,0.694L52.289,3.42L46.221,3.42L46.221,6.771L52.289,6.771L52.289,9.495L46.221,9.495L46.221,16.167L52.289,16.167L52.289,18.866L43.29,18.866Z" style="fill:rgb(254,254,254);"/>
                    <path id="Fill-10" d="M56.119,0.695L59.05,0.695L64.835,15.051L70.645,0.695L73.576,0.695L73.576,18.867L70.645,18.867L70.645,7.94L66.325,18.867L63.345,18.867L59.05,7.94L59.05,18.867L56.119,18.867L56.119,0.695Z" style="fill:rgb(254,254,254);"/>
                    <path id="Fill-12" d="M80.448,11.079L80.448,16.038L83.995,16.038C85.563,16.038 86.642,15.155 86.642,13.572C86.642,12.013 85.563,11.079 84.019,11.079L80.448,11.079ZM80.448,3.421L80.448,8.277L82.196,8.277C83.71,8.277 84.509,7.34 84.509,5.835C84.509,4.328 83.71,3.421 82.196,3.421L80.448,3.421ZM77.514,0.695L82.376,0.695C85.512,0.695 87.491,2.721 87.491,5.602C87.491,7.212 86.927,8.25 85.999,8.874C88.237,9.417 89.729,11 89.729,13.572C89.729,16.79 87.414,18.865 84.2,18.865L77.514,18.865L77.514,0.695Z" style="fill:rgb(254,254,254);"/>
                    <path id="Fill-14" d="M92.706,0.695L95.638,0.695L95.638,16.168L101.705,16.168L101.705,18.867L92.706,18.867L92.706,0.695Z" style="fill:rgb(254,254,254);"/>
                    <path id="Fill-16" d="M104.533,18.866L104.533,0.694L113.529,0.694L113.529,3.42L107.464,3.42L107.464,6.771L113.529,6.771L113.529,9.495L107.464,9.495L107.464,16.167L113.529,16.167L113.529,18.866L104.533,18.866Z" style="fill:rgb(254,254,254);"/>
                    <path id="Fill-18" d="M33.547,37.828L33.547,49.977C33.547,53.716 31.081,56.388 27.3,56.388C23.572,56.388 21.105,53.716 21.105,49.977L21.105,37.828L24.01,37.828L24.01,49.977C24.01,52.002 25.269,53.559 27.3,53.559C29.384,53.559 30.616,52.002 30.616,49.977L30.616,37.828L33.547,37.828Z" style="fill:rgb(254,254,254);"/>
                    <path id="Fill-20" d="M44.066,42.579C44.066,41.099 43.219,40.165 41.831,40.165C40.414,40.165 39.491,41.126 39.491,42.345C39.491,43.592 40.08,44.268 41.831,44.759L42.678,44.993C45.688,45.824 47.923,47.043 47.923,50.704C47.923,54 45.352,56.363 41.882,56.363C38.437,56.363 35.893,54.027 35.893,50.288L38.693,50.288C38.693,52.184 40.056,53.637 41.882,53.637C43.835,53.637 45.069,52.366 45.069,50.704C45.069,49.069 44.042,48.29 41.907,47.692L41.11,47.486C38.13,46.655 36.713,44.941 36.713,42.345C36.713,39.386 38.9,37.439 41.831,37.439C45.018,37.439 46.844,39.204 46.844,42.579L44.066,42.579Z" style="fill:rgb(254,254,254);"/>
                    <path id="Fill-22" d="M50.238,56L50.238,53.298L53.785,53.298L53.785,40.554L50.238,40.554L50.238,37.828L60.266,37.828L60.266,40.554L56.717,40.554L56.717,53.298L60.266,53.298L60.266,56L50.238,56Z" style="fill:rgb(254,254,254);"/>
                    <path id="Fill-24" d="M72.476,45.875L76.718,56.001L73.428,56.001L70.65,48.99L66.562,56.001L63.633,56.001L63.633,37.829L66.562,37.829L66.562,50.627L73.891,37.829L77.18,37.829L72.476,45.875Z" style="fill:rgb(254,254,254);"/>
                    <path id="Fill-26" d="M82.915,46.629L82.915,56L79.983,56L79.983,37.828L88.984,37.828L88.984,40.554L82.915,40.554L82.915,43.902L88.984,43.902L88.984,46.629L82.915,46.629Z" style="fill:rgb(254,254,254);"/>
                    <path id="Fill-28" d="M111.017,48.212L111.017,53.171L114.564,53.171C116.132,53.171 117.213,52.288 117.213,50.705C117.213,49.146 116.132,48.212 114.589,48.212L111.017,48.212ZM111.017,40.554L111.017,45.407L112.765,45.407C114.282,45.407 115.078,44.473 115.078,42.969C115.078,41.464 114.282,40.554 112.765,40.554L111.017,40.554ZM108.085,37.828L112.945,37.828C116.081,37.828 118.061,39.854 118.061,42.735C118.061,44.343 117.496,45.383 116.571,46.007C118.806,46.55 120.298,48.134 120.298,50.705C120.298,53.923 117.983,56 114.771,56L108.085,56L108.085,37.828Z" style="fill:rgb(254,254,254);"/>
                    <path id="Fill-30" d="M127.704,40.658L130.377,45.59L131.429,45.59C132.972,45.59 134.051,44.655 134.051,43.124C134.051,41.592 132.972,40.658 131.429,40.658L127.704,40.658ZM137.114,43.124C137.114,46.214 134.901,48.289 131.891,48.419L136.033,56.001L132.741,56.001L126.391,43.982L126.391,56.001L123.46,56.001L123.46,37.829L131.609,37.829C134.799,37.829 137.114,39.906 137.114,43.124Z" style="fill:rgb(254,254,254);"/>
                    <path id="Fill-32" d="M139.35,56L139.35,53.298L142.897,53.298L142.897,40.554L139.35,40.554L139.35,37.828L149.376,37.828L149.376,40.554L145.829,40.554L145.829,53.298L149.376,53.298L149.376,56L139.35,56Z" style="fill:rgb(254,254,254);"/>
                    <g id="Group-36" transform="matrix(1,0,0,1,151.957,37.3333)">
                        <path id="Fill-34" d="M9.633,8.542L13.875,18.668L10.583,18.668L7.807,11.656L3.719,18.668L0.788,18.668L0.788,0.496L3.719,0.496L3.719,13.294L11.048,0.496L14.337,0.496L9.633,8.542Z" style="fill:rgb(254,254,254);"/>
                    </g>
                    <path id="Fill-37" d="M0,37.829L2.931,37.829L8.717,52.186L14.526,37.829L17.457,37.829L17.457,56.001L14.526,56.001L14.526,45.074L10.207,56.001L7.226,56.001L2.931,45.074L2.931,56.001L0,56.001L0,37.829Z" style="fill:rgb(254,254,254);"/>
                    <path id="Fill-39" d="M95.707,46.976L100.7,51.032L97.523,41.705L95.707,46.976ZM94.76,49.665L92.634,55.917L89.51,55.917L96.04,37.828L99.086,37.828L105.409,55.917L102.339,55.917L94.76,49.665Z" style="fill:rgb(254,254,254);"/>
                </g>
            </g>
        </g>
    </g>
</svg>
