<?xml version="1.0" encoding="UTF-8" standalone="no"?>
<!DOCTYPE svg PUBLIC "-//W3C//DTD SVG 1.1//EN" "http://www.w3.org/Graphics/SVG/1.1/DTD/svg11.dtd">
<svg width="100%" height="100%" viewBox="0 0 232 439" version="1.1" xmlns="http://www.w3.org/2000/svg" xmlns:xlink="http://www.w3.org/1999/xlink" xml:space="preserve" xmlns:serif="http://www.serif.com/" style="fill-rule:evenodd;clip-rule:evenodd;stroke-linejoin:round;stroke-miterlimit:2;">
    <rect x="3.7" y="0" width="27.8" height="8.3" style="fill:white;"/>
    <g>
        <path d="M3.7,88.8L3.7,33.2L31.5,33.2L31.5,41.5L12.7,41.5L12.7,51.8L31.5,51.8L31.5,60.1L12.7,60.1L12.7,80.5L31.5,80.5L31.5,88.8L3.7,88.8Z" style="fill:white;fill-rule:nonzero;"/>
        <path d="M73.8,65.9L52.4,45.3L52.4,88.8L43.3,88.8L43.3,33.2L52.4,33.2L73.8,53.9L73.8,33.2L82.9,33.2L82.9,88.8L73.8,88.8L73.8,65.9Z" style="fill:white;fill-rule:nonzero;"/>
        <path d="M117.1,47.7C117.1,43.2 114.5,40.3 110.2,40.3C105.8,40.3 103,43.2 103,47C103,50.8 104.8,52.9 110.2,54.4L112.8,55.1C122.1,57.6 129,61.4 129,72.6C129,82.7 121.1,89.9 110.3,89.9C99.6,89.9 91.8,82.7 91.8,71.3L100.5,71.3C100.5,77.1 104.7,81.6 110.4,81.6C116.4,81.6 120.3,77.7 120.3,72.6C120.3,67.6 117.1,65.2 110.5,63.4L108,62.8C98.8,60.2 94.4,55 94.4,47C94.4,37.9 101.2,32 110.2,32C120.1,32 125.7,37.4 125.7,47.7L117.1,47.7Z" style="fill:white;fill-rule:nonzero;"/>
        <path d="M137.5,88.8L137.5,33.2L165.3,33.2L165.3,41.5L146.5,41.5L146.5,51.8L165.3,51.8L165.3,60.1L146.5,60.1L146.5,80.5L165.3,80.5L165.3,88.8L137.5,88.8Z" style="fill:white;fill-rule:nonzero;"/>
        <path d="M177.2,33.2L186.3,33.2L204.2,77.2L222.2,33.2L231.3,33.2L231.3,88.8L222.2,88.8L222.2,55.4L208.8,88.9L199.6,88.9L186.3,55.4L186.3,88.9L177.2,88.9L177.2,33.2Z" style="fill:white;fill-rule:nonzero;"/>
    </g>
    <g>
        <path d="M3.7,101.2L18.7,101.2C28.4,101.2 34.5,107.4 34.5,116.2C34.5,121.1 32.8,124.3 29.9,126.2C36.8,127.9 41.4,132.7 41.4,140.6C41.4,150.5 34.2,156.8 24.3,156.8L3.7,156.8L3.7,101.2ZM12.7,109.6L12.7,124.5L18.1,124.5C22.8,124.5 25.3,121.6 25.3,117C25.3,112.4 22.8,109.6 18.1,109.6L12.7,109.6ZM12.7,133L12.7,148.2L23.7,148.2C28.5,148.2 31.9,145.5 31.9,140.6C31.9,135.8 28.6,133 23.8,133L12.7,133Z" style="fill:white;fill-rule:nonzero;"/>
        <path d="M50.6,101.2L59.7,101.2L59.7,148.6L78.5,148.6L78.5,156.9L50.6,156.9L50.6,101.2Z" style="fill:white;fill-rule:nonzero;"/>
        <path d="M87.2,156.9L87.2,101.3L115,101.3L115,109.6L96.3,109.6L96.3,119.9L115,119.9L115,128.2L96.3,128.2L96.3,148.6L115,148.6L115,156.9L87.2,156.9Z" style="fill:white;fill-rule:nonzero;"/>
    </g>
    <g>
        <path d="M3.7,214.2L12.8,214.2L30.7,258.2L48.7,214.2L57.8,214.2L57.8,269.8L48.7,269.8L48.7,236.3L35.3,269.8L26,269.8L12.7,236.3L12.7,269.8L3.7,269.8L3.7,214.2Z" style="fill:white;fill-rule:nonzero;"/>
        <path d="M109.1,214.2L109.1,251.4C109.1,262.8 101.5,271 89.8,271C78.3,271 70.6,262.8 70.6,251.4L70.6,214.2L79.6,214.2L79.6,251.4C79.6,257.6 83.5,262.4 89.8,262.4C96.2,262.4 100.1,257.6 100.1,251.4L100.1,214.2L109.1,214.2Z" style="fill:white;fill-rule:nonzero;"/>
    </g>
    <g>
        <path d="M25.3,296.6C25.3,292.1 22.7,289.2 18.4,289.2C14,289.2 11.2,292.1 11.2,295.9C11.2,299.7 13,301.8 18.4,303.3L21,304C30.3,306.5 37.2,310.3 37.2,321.5C37.2,331.6 29.3,338.8 18.5,338.8C7.9,338.8 0,331.7 0,320.2L8.7,320.2C8.7,326 12.9,330.5 18.6,330.5C24.6,330.5 28.5,326.6 28.5,321.5C28.5,316.5 25.3,314.1 18.7,312.3L16.2,311.7C7,309.2 2.6,303.9 2.6,296C2.6,286.9 9.4,281 18.4,281C28.3,281 33.9,286.4 33.9,296.7L25.3,296.7L25.3,296.6Z" style="fill:white;fill-rule:nonzero;"/>
        <path d="M44.4,337.7L44.4,329.4L55.4,329.4L55.4,290.4L44.4,290.4L44.4,282.1L75.4,282.1L75.4,290.4L64.4,290.4L64.4,329.4L75.4,329.4L75.4,337.7L44.4,337.7Z" style="fill:white;fill-rule:nonzero;"/>
        <path d="M113.1,306.7L126.2,337.7L116,337.7L107.4,316.2L94.8,337.7L85.7,337.7L85.7,282.1L94.8,282.1L94.8,321.3L117.5,282.1L127.7,282.1L113.1,306.7Z" style="fill:white;fill-rule:nonzero;"/>
        <path d="M145.4,309L145.4,337.7L136.3,337.7L136.3,282.1L164.1,282.1L164.1,290.4L145.3,290.4L145.3,300.7L164.1,300.7L164.1,309L145.4,309Z" style="fill:white;fill-rule:nonzero;"/>
        <path d="M180.8,318.5L174.2,337.7L164.5,337.7L184.8,282.1L194.3,282.1L213.9,337.7L204.4,337.7L180.8,318.5ZM183.8,310.2L199.3,322.7L189.4,294L183.8,310.2Z" style="fill:white;fill-rule:nonzero;"/>
    </g>
    <g>
        <path d="M3.7,350.1L18.7,350.1C28.4,350.1 34.5,356.3 34.5,365.1C34.5,370 32.8,373.2 29.9,375.1C36.8,376.8 41.4,381.6 41.4,389.5C41.4,399.4 34.2,405.7 24.3,405.7L3.7,405.7L3.7,350.1ZM12.7,358.5L12.7,373.4L18.1,373.4C22.8,373.4 25.3,370.5 25.3,365.9C25.3,361.3 22.8,358.5 18.1,358.5L12.7,358.5ZM12.7,381.9L12.7,397.1L23.7,397.1C28.5,397.1 31.9,394.4 31.9,389.5C31.9,384.7 28.6,381.9 23.8,381.9L12.7,381.9Z" style="fill:white;fill-rule:nonzero;"/>
        <path d="M93.4,366.3C93.4,375.8 86.6,382.1 77.3,382.5L90.1,405.7L79.9,405.7L60.3,369L60.3,405.8L51.2,405.8L51.2,350.2L76.4,350.2C86.3,350.1 93.4,356.5 93.4,366.3ZM64.3,358.8L72.6,373.9L75.9,373.9C80.7,373.9 84,371 84,366.3C84,361.6 80.7,358.7 75.9,358.7L64.3,358.7L64.3,358.8Z" style="fill:white;fill-rule:nonzero;"/>
        <path d="M100.4,405.8L100.4,397.5L111.4,397.5L111.4,358.5L100.4,358.5L100.4,350.2L131.4,350.2L131.4,358.5L120.4,358.5L120.4,397.5L131.4,397.5L131.4,405.8L100.4,405.8Z" style="fill:white;fill-rule:nonzero;"/>
        <path d="M169.2,374.8L182.3,405.8L172.1,405.8L163.5,384.3L150.9,405.8L141.8,405.8L141.8,350.2L150.9,350.2L150.9,389.4L173.6,350.2L183.8,350.2L169.2,374.8Z" style="fill:white;fill-rule:nonzero;"/>
    </g>
    <rect x="3.7" y="0" width="27.8" height="8.3" style="fill:white;"/>
    <rect x="3.7" y="430.7" width="27.8" height="8.3" style="fill:white;"/>
    <rect x="3.7" y="430.7" width="27.8" height="8.3" style="fill:white;"/>
    <rect x="3.7" y="181.3" width="27.8" height="8.3" style="fill:white;"/>
</svg>
